<?xml version="1.0" encoding="UTF-8"?>
<svg id="a" data-name="Layer 1" xmlns="http://www.w3.org/2000/svg" width="791.709" height="359.965" viewBox="0 0 791.709 359.965">
  <g>
    <path d="M95.839,255.006c-4.078-3.623-6.5-8.618-6.822-14.062-.626-10.638,7.045-19.88,17.396-21.404.587-.086,1.184-.149,1.788-.184,8.621-.507,16.31,4.447,19.732,11.851,3.654-1.795,7.604-3.092,11.763-3.808-5.148-12.603-17.89-21.163-32.22-20.318-18.014,1.04-31.797,16.578-30.736,34.588.514,8.724,4.395,16.726,10.928,22.532,4.54,4.033,9.992,6.634,15.818,7.695-.143-4.226.317-8.34,1.319-12.255-3.295-.756-6.37-2.324-8.968-4.634Z" fill="#6ddcff"/>
    <path d="M124.668,253.306c-1.823,2.053-3.998,3.683-6.401,4.839-1.791,4.188-2.685,8.825-2.472,13.66,6.965-1.374,13.269-4.932,18.066-10.329,5.434-6.116,8.295-13.876,8.22-21.999-4.74.768-9.106,2.581-12.86,5.2-.785,3.168-2.325,6.121-4.555,8.629Z" fill="#6ddcff"/>
  </g>
  <g>
    <path d="M129.789,238.539c.123,2.094-.076,4.157-.567,6.137,3.754-2.619,8.12-4.431,12.86-5.2-.005-.554.016-1.105-.017-1.661-.217-3.68-1.047-7.18-2.369-10.417-4.159.716-8.109,2.013-11.763,3.808,1.04,2.249,1.701,4.715,1.856,7.333Z" fill="#1aa292"/>
    <path d="M114.225,272.106c.53-.078,1.047-.198,1.57-.301-.213-4.835.681-9.472,2.472-13.66-2.37,1.14-4.962,1.821-7.662,1.983-1.975.116-3.922-.057-5.799-.488-1.002,3.915-1.462,8.029-1.319,12.255,2.558.466,5.181.665,7.842.508.975-.057,1.941-.157,2.896-.297Z" fill="#1aa292"/>
  </g>
  <path d="M96.084,136.154c-4.675-2.021-8.283-5.741-10.161-10.475-1.876-4.736-1.796-9.918.225-14.593,4.175-9.651,15.419-14.11,25.071-9.934h0c4.675,2.021,8.282,5.742,10.159,10.476,1.876,4.736,1.797,9.918-.224,14.592-2.021,4.677-5.743,8.285-10.478,10.161-1.222.485-2.474.839-3.739,1.062-3.637.643-7.386.212-10.853-1.288ZM94.614,114.746c-1.043,2.415-1.083,5.09-.115,7.535.969,2.445,2.832,4.364,5.245,5.408,2.412,1.043,5.084,1.086,7.535.115,2.444-.967,4.364-2.83,5.408-5.245,1.043-2.413,1.085-5.089.116-7.534-.969-2.443-2.832-4.364-5.244-5.409h-.001c-1.831-.792-3.775-.982-5.606-.658-3.15.557-5.973,2.636-7.337,5.786Z" fill="#8596fd"/>
  <g>
    <path d="M129.222,244.676c.491-1.98.69-4.043.567-6.137-.155-2.618-.816-5.085-1.856-7.333-11.407,5.604-19.948,16.016-23.127,28.434,1.877.431,3.823.604,5.799.488,2.7-.162,5.292-.843,7.662-1.983,2.322-5.431,6.133-10.105,10.955-13.468Z" fill="#22d1bc"/>
    <path d="M144.549,226.83c-1.647.098-3.263.294-4.853.568,1.322,3.237,2.151,6.737,2.369,10.417.033.557.012,1.107.017,1.661.15-.024.295-.065.445-.088.902-.133,1.819-.227,2.746-.283,17.268-1.015,32.146,12.204,33.165,29.472.493,8.366-2.301,16.422-7.867,22.687-5.565,6.263-13.229,9.985-21.604,10.48-8.366.493-16.422-2.301-22.687-7.867-6.264-5.566-9.986-13.238-10.48-21.604-.01-.158.002-.311-.005-.469-.523.103-1.04.223-1.57.301-.955.141-1.921.24-2.896.297-2.661.157-5.284-.042-7.842-.508.012.368.015.733.037,1.102,1.418,24.039,22.129,42.443,46.167,41.023,1.291-.075,2.566-.208,3.822-.393,22.136-3.26,38.544-23.026,37.201-45.774-1.418-24.037-22.128-42.44-46.166-41.023Z" fill="#22d1bc"/>
  </g>
  <g>
    <path d="M88.506,196.16c-5.94.523-11.728-1.298-16.298-5.129-4.57-3.831-7.376-9.212-7.898-15.152-.523-5.94,1.298-11.728,5.129-16.298,3.831-4.57,9.215-7.382,15.152-7.898,5.94-.523,11.728,1.298,16.298,5.129,4.57,3.831,7.376,9.212,7.898,15.152.523,5.94-1.298,11.728-5.129,16.298-3.403,4.06-8.028,6.726-13.183,7.638-.648.115-1.306.202-1.97.26ZM76.508,165.507c-2.247,2.681-3.317,6.078-3.01,9.564.307,3.486,1.953,6.643,4.636,8.892,2.681,2.247,6.078,3.317,9.564,3.01,3.486-.315,6.643-1.954,8.892-4.636,2.247-2.681,3.317-6.078,3.01-9.564-.307-3.486-1.953-6.643-4.636-8.892-2.681-2.247-6.078-3.317-9.564-3.01-.389.035-.775.085-1.155.152-3.025.535-5.739,2.101-7.737,4.483Z" fill="#12b8ff"/>
    <path d="M86.506,196.44c-5.274,0-10.332-1.833-14.421-5.262-4.61-3.864-7.44-9.291-7.966-15.283-.528-5.992,1.309-11.829,5.173-16.437,3.87-4.618,9.298-7.446,15.283-7.966,5.989-.521,11.829,1.309,16.437,5.173,4.611,3.866,7.44,9.293,7.966,15.283.528,5.992-1.308,11.829-5.173,16.437-3.396,4.052-8.118,6.787-13.296,7.703-.654.117-1.323.204-1.987.263h0c-.674.059-1.347.089-2.016.089ZM86.591,151.788c-.658,0-1.319.03-1.982.089-5.882.509-11.217,3.289-15.022,7.828-3.797,4.531-5.603,10.269-5.084,16.158.517,5.889,3.298,11.224,7.829,15.022,4.531,3.798,10.266,5.609,16.158,5.083h0c.653-.056,1.31-.143,1.952-.257,5.164-.913,9.682-3.531,13.069-7.571,3.798-4.531,5.604-10.269,5.084-16.158-.517-5.888-3.298-11.222-7.829-15.022-4.02-3.37-8.992-5.172-14.176-5.172ZM86.528,187.216c-3.116,0-6.103-1.081-8.517-3.106-2.722-2.28-4.392-5.486-4.703-9.023-.312-3.534.772-6.981,3.054-9.704h0c2.007-2.393,4.795-4.008,7.85-4.549.372-.066.766-.119,1.172-.153,3.53-.321,6.981.77,9.704,3.052,2.723,2.282,4.393,5.486,4.704,9.023.312,3.535-.773,6.982-3.054,9.704-2.275,2.713-5.479,4.384-9.021,4.703-.397.036-.793.053-1.188.053ZM76.655,165.629h0c-2.215,2.645-3.268,5.993-2.965,9.425.303,3.435,1.925,6.546,4.567,8.761,2.642,2.213,5.989,3.27,9.425,2.965,3.439-.311,6.551-1.932,8.761-4.567,2.215-2.644,3.268-5.99,2.966-9.425-.303-3.433-1.925-6.546-4.568-8.761-2.644-2.214-5.991-3.256-9.423-2.965-.395.036-.778.086-1.139.15-3.01.531-5.646,2.06-7.623,4.417Z" fill="#12b8ff"/>
  </g>
  <path d="M136.858,70.365c2.901,0,5.57,1.562,6.967,4.078,2.125,3.826.741,8.667-3.085,10.792-.774.43-1.6.724-2.453.875-.449.08-.91.12-1.369.12-2.901,0-5.571-1.564-6.969-4.081-1.026-1.848-1.269-3.99-.685-6.033.584-2.042,1.923-3.732,3.772-4.758,1.186-.659,2.472-.993,3.822-.993M136.857,61.91c-2.689,0-5.415.662-7.926,2.057-7.902,4.386-10.761,14.383-6.374,22.286,2.993,5.39,8.594,8.432,14.361,8.432.946,0,1.896-.082,2.84-.248,1.739-.308,3.457-.905,5.087-1.81,7.902-4.387,10.759-14.386,6.372-22.288-2.991-5.387-8.594-8.429-14.361-8.429h0Z" fill="#9fbaff"/>
  <g>
    <path d="M521.705,175.62c-.475-1.478-1.399-2.561-2.772-3.247-1.373-.686-4.787-1.03-7.214-1.03-2.377,0-5.738.277-7.058.832-1.32.555-1.979,1.36-1.979,2.416,0,.95.515,1.691,1.544,2.218,1.03.528,4.297.95,6.779,1.267l7.216.792c4.963.687,8.779,1.558,11.445,2.614,2.666,1.057,4.555,2.416,5.663,4.079,1.109,1.664,1.664,3.842,1.664,6.535,0,4.489-1.928,7.895-5.782,10.218-3.855,2.323-11.018,3.485-18.463,3.485-7.763,0-15.164-1.216-19.176-3.644s-6.285-6.071-6.811-10.931h14.652c.95,3.064,5.658,4.594,11.097,4.594,2.535,0,5.974-.277,7.294-.832,1.319-.555,1.981-1.386,1.981-2.495,0-.95-.503-1.663-1.506-2.138-1.004-.475-4.285-.872-6.819-1.188l-6.741-.713c-4.647-.633-8.33-1.517-11.049-2.653-2.721-1.135-4.687-2.586-5.901-4.357-1.216-1.768-1.822-3.973-1.822-6.614,0-4.171,1.953-7.406,5.861-9.703,3.908-2.297,10.886-3.446,17.91-3.446,6.811,0,13.578,1.003,17.274,3.01,3.695,2.008,6.072,5.202,7.129,9.584l-14.416,1.347Z" fill="#22d1bc"/>
    <path d="M584.742,204.531l-8.474-24.238-8.556,24.238h-15.049l-14.495-41.584h15.525l7.761,25.742,8.634-25.425h12.593l8.713,25.109,7.684-25.426h14.97l-14.495,41.584h-14.813Z" fill="#22d1bc"/>
    <path d="M702.207,204.531v-24.317c0-2.27-.464-3.947-1.387-5.03-.924-1.082-2.443-1.624-4.554-1.624-2.325,0-4.41.872-6.257,2.614-1.584,1.584-2.377,3.327-2.377,5.227v23.129h-15.683v-24.317c0-2.323-.463-4.013-1.385-5.069-.925-1.056-2.443-1.584-4.555-1.584-1.162,0-2.285.238-3.366.713-1.083.475-2.047,1.162-2.891,2.059-1.584,1.584-2.376,3.433-2.376,5.544v22.653h-15.683v-41.584h15.365v5.782c4.119-4.699,9.162-7.049,15.129-7.049,3.274,0,6.072.633,8.397,1.901,2.322,1.267,4.091,3.117,5.307,5.544,4.17-4.962,9.663-7.445,16.474-7.445,4.912,0,8.725,1.386,11.445,4.158,2.72,2.772,4.08,6.641,4.08,11.604v27.089h-15.683Z" fill="#22d1bc"/>
    <g>
      <circle cx="626.169" cy="148.024" r="8.672" fill="#22d1bc"/>
      <path d="M619.275,163.84c.248,1.08,1.827,4.866,2.053,8.154.283,4.13-2.018,5.944-3.051,8.49-.135.334-.273.66-.412.988-1.184,2.816-2.653,6.309-2.926,12.495-.171,3.868.457,7.736,1.097,10.565h14.799l-.354-1.158c-.151-.494-1.472-4.94-1.305-8.743.154-3.492.827-5.092,1.758-7.305l.061-.146c.144-.343.287-.683.425-1.027,1.359-3.347,4.283-6.401,4.143-13.494-.07-3.556-1.45-7.119-1.914-9.704h-14.578l.204.886Z" fill="#22d1bc"/>
    </g>
    <g>
      <path d="M244.712,179.965v24.842h-6.746v-24.678c0-8.968-5.347-12.998-11.516-12.998-8.391,0-12.751,7.322-13.409,11.68v25.995h-6.745v-42.776h6.745v9.543c.823-2.55,5.43-10.365,15.466-10.365,8.144,0,16.206,5.511,16.206,18.756Z" fill="#22d1bc"/>
      <path d="M265.802,166.72c-4.113,0-6.992,2.386-6.992,5.922,0,2.715,1.645,4.936,5.922,6.498l4.278,1.482c7.157,2.55,12.34,5.347,12.34,12.505,0,8.39-7.486,12.505-15.219,12.505-7.897,0-13.902-4.196-15.466-11.436l5.429-1.562c1.316,4.605,5.265,7.484,10.119,7.484,4.36,0,8.638-2.301,8.638-6.826,0-3.536-2.632-5.594-7.075-7.158l-4.771-1.728c-7.486-2.632-10.694-6.826-10.694-11.845,0-6.747,5.923-11.352,13.326-11.352,6.91,0,11.764,3.783,14.067,9.459l-5.594,1.646c-1.646-3.454-4.36-5.594-8.309-5.594Z" fill="#22d1bc"/>
      <path d="M332.243,183.419c0,14.89-11.681,22.212-21.388,22.212-7.486,0-13.409-4.361-15.548-8.968h-.494v23.774h-6.745v-26.817h.082v-31.589h6.663v8.144h.494c2.139-4.607,8.062-8.966,15.548-8.966,9.707,0,21.388,7.319,21.388,22.21ZM325.662,183.419c0-10.858-8.226-16.205-15.547-16.205s-15.466,5.347-15.466,16.205,8.144,16.205,15.466,16.205,15.547-5.347,15.547-16.205Z" fill="#22d1bc"/>
      <path d="M380.207,161.538v6.333c-.658-.164-1.399-.164-1.974-.164-8.144,0-14.808,5.84-15.959,15.466v21.635h-6.745v-42.776h6.745v11.269c1.563-6.333,7.404-11.927,15.877-11.927.74,0,1.398,0,2.056.164Z" fill="#22d1bc"/>
      <path d="M391.155,193.157c2.975,4.423,8.158,6.714,13.499,6.714,5.841,0,9.625-1.644,12.833-4.769l3.949,3.619c-3.866,4.607-9.461,6.911-16.946,6.911-10.858,0-22.458-7.322-22.458-22.13,0-14.89,11.928-22.292,21.553-22.292,8.493,0,19.506,5.667,20.97,18.712l.072.715-33.472,12.521ZM389.087,188.442l28.601-10.653.282-.119-.052-.195c-2.131-6.951-8.759-10.427-14.332-10.427-6.252,0-13.656,4.525-14.89,13.82,0,0-.342,2.014,0,5.1.1.872.189,1.684.392,2.473Z" fill="#22d1bc"/>
      <path d="M473.391,172.067h-.082v32.74h-6.663v-8.144h-.494c-2.139,4.607-8.062,8.968-15.547,8.968-9.707,0-21.389-7.322-21.389-22.212s11.681-22.21,21.389-22.21c7.486,0,13.409,4.358,15.547,8.966h.494v-30.384h6.745v32.277ZM466.81,183.419c0-10.858-8.144-16.205-15.465-16.205s-15.548,5.347-15.548,16.205,8.227,16.205,15.548,16.205,15.465-5.347,15.465-16.205Z" fill="#22d1bc"/>
      <g>
        <rect x="190.316" y="162.031" width="6.745" height="42.776" fill="#22d1bc"/>
        <circle cx="193.688" cy="148.788" r="4.745" fill="#22d1bc"/>
      </g>
      <g>
        <rect x="339.771" y="162.031" width="6.745" height="42.776" fill="#22d1bc"/>
        <circle cx="343.143" cy="148.788" r="4.745" fill="#22d1bc"/>
      </g>
    </g>
  </g>
</svg>