<?xml version="1.0" encoding="UTF-8"?>
<svg id="a" data-name="Layer 1" xmlns="http://www.w3.org/2000/svg" width="501.477" height="430.849" viewBox="0 0 501.477 430.849">
  <g>
    <path d="M157.339,210.01c-9.846-8.746-15.692-20.807-16.47-33.951-1.51-25.683,17.01-47.996,41.999-51.675,1.416-.209,2.86-.359,4.316-.445,20.814-1.224,39.377,10.737,47.639,28.611,8.823-4.334,18.358-7.464,28.4-9.194-12.429-30.427-43.191-51.094-77.788-49.054-43.491,2.51-76.768,40.023-74.205,83.506,1.24,21.063,10.61,40.382,26.383,54.399,10.961,9.738,24.124,16.016,38.19,18.578-.345-10.203.766-20.136,3.185-29.588-7.955-1.826-15.378-5.611-21.651-11.187Z" fill="#6ddcff"/>
    <path d="M226.94,205.905c-4.401,4.956-9.652,8.891-15.453,11.683-4.323,10.112-6.481,21.306-5.968,32.979,16.815-3.318,32.034-11.908,43.617-24.938,13.119-14.766,20.027-33.502,19.847-53.112-11.443,1.855-21.984,6.23-31.047,12.554-1.895,7.647-5.613,14.777-10.997,20.834Z" fill="#6ddcff"/>
  </g>
  <g>
    <path d="M239.305,170.255c.298,5.056-.184,10.036-1.368,14.816,9.063-6.323,19.604-10.698,31.047-12.554-.012-1.337.038-2.667-.041-4.011-.524-8.886-2.527-17.334-5.718-25.15-10.042,1.73-19.577,4.859-28.4,9.194,2.51,5.429,4.107,11.383,4.481,17.705Z" fill="#1aa292"/>
    <path d="M201.728,251.295c1.28-.189,2.529-.479,3.791-.728-.514-11.674,1.644-22.868,5.968-32.979-5.722,2.753-11.979,4.395-18.498,4.787-4.769.281-9.469-.138-14-1.178-2.418,9.452-3.529,19.385-3.185,29.588,6.176,1.125,12.508,1.607,18.933,1.227,2.354-.138,4.685-.378,6.991-.718Z" fill="#1aa292"/>
  </g>
  <g>
    <path d="M237.937,185.071c1.185-4.78,1.666-9.761,1.368-14.816-.374-6.321-1.971-12.276-4.481-17.705-27.54,13.53-48.159,38.666-55.834,68.647,4.531,1.04,9.231,1.459,14,1.178,6.518-.392,12.776-2.034,18.498-4.787,5.607-13.112,14.808-24.397,26.449-32.517Z" fill="#22d1bc"/>
    <path d="M274.94,141.985c-3.975.235-7.878.71-11.716,1.371,3.192,7.816,5.194,16.264,5.718,25.15.079,1.344.029,2.674.041,4.011.363-.059.711-.158,1.075-.211,2.177-.321,4.393-.548,6.629-.683,41.69-2.45,77.611,29.465,80.071,71.153,1.19,20.198-5.555,39.648-18.994,54.772-13.435,15.12-31.94,24.106-52.159,25.302-20.198,1.19-39.648-5.555-54.772-18.994-15.124-13.438-24.109-31.961-25.302-52.159-.023-.38.005-.752-.013-1.131-1.262.249-2.511.539-3.791.728-2.306.34-4.637.58-6.991.718-6.425.379-12.757-.103-18.933-1.227.03.888.037,1.77.09,2.661,3.424,58.036,53.425,102.469,111.461,99.042,3.117-.181,6.195-.502,9.228-.949,53.443-7.87,93.057-55.592,89.813-110.512-3.424-58.033-53.424-102.462-111.457-99.042Z" fill="#22d1bc"/>
  </g>
</svg>